<svg width="37" height="37" viewBox="0 0 37 37" fill="none" xmlns="http://www.w3.org/2000/svg">
<path d="M9.38281 12.0593C9.35842 12.0595 9.30775 12.0587 9.24707 12.0436C9.20926 12.0342 9.11192 12.006 9.02246 11.9225C9.01616 11.9171 9.00852 11.9103 9.00098 11.903C8.96588 11.8692 8.83695 11.7374 8.8418 11.5192C8.84603 11.3309 8.95001 11.2113 8.97656 11.1813C9.01366 11.1395 9.05264 11.1074 9.07422 11.0905C9.15434 11.0277 9.32329 10.9168 9.60156 10.7292L9.60254 10.7282C11.1631 9.68558 12.9427 8.83193 14.9365 8.16278C15.4446 7.99115 16.1861 7.78168 16.8408 7.61591C17.1693 7.53275 17.4814 7.45905 17.7354 7.40594C17.9561 7.35979 18.1831 7.31905 18.332 7.31512V7.31415C18.3333 7.31409 18.3347 7.31517 18.3359 7.31512C18.3419 7.31499 18.3478 7.31317 18.3535 7.31317V7.31512C18.4394 7.31386 18.5379 7.32426 18.6162 7.33563C18.7138 7.34979 18.8301 7.37064 18.9551 7.3952C19.0803 7.41981 19.2185 7.44856 19.3623 7.48114L19.8037 7.58759C22.4894 8.26914 24.8436 9.2644 26.8594 10.5651L26.8643 10.5681C27.0715 10.7051 27.2599 10.8325 27.3965 10.9284C27.4637 10.9756 27.5244 11.0194 27.5693 11.0544C27.5896 11.0701 27.6181 11.0929 27.6445 11.1179C27.6542 11.127 27.6862 11.1572 27.7168 11.1999C27.7294 11.2175 27.7683 11.2733 27.792 11.3552C27.813 11.428 27.8418 11.6095 27.7246 11.778L27.665 11.8493L27.5771 11.9196C27.49 11.9743 27.4097 11.9866 27.3887 11.9899C27.3419 11.9974 27.3041 11.9965 27.2871 11.9958C27.2511 11.9943 27.2223 11.9891 27.2109 11.987C27.1845 11.9821 27.1602 11.9754 27.1455 11.9714C27.1127 11.9625 27.0726 11.9505 27.0312 11.9372C26.9464 11.9099 26.8291 11.8706 26.6904 11.822L25.623 11.4333C23.6692 10.7072 21.7818 10.0893 20.2637 9.69012H20.2627C19.2816 9.43053 18.8213 9.31113 18.5264 9.26825C18.346 9.24206 18.2473 9.24543 18.0898 9.27606L17.9082 9.3161C15.8289 9.79346 12.4312 10.8926 10.0098 11.8796L10.0068 11.8806L9.65625 12.0065C9.60838 12.0212 9.5535 12.0367 9.50195 12.0466C9.47913 12.0509 9.43444 12.0586 9.38281 12.0593ZM34.2676 16.0954L33.9023 16.4606C33.5637 16.7993 33.5441 17.2157 33.7988 17.5475L33.8027 17.5524L34.0215 17.8444L34.1641 18.0339L34.1074 18.2643L33.7754 19.611C33.5926 20.3612 33.5066 20.7434 33.4795 20.9567H33.4814C33.654 20.9712 33.9551 20.9753 34.5371 20.9753C35.0855 20.9753 35.3785 20.9725 35.5488 20.9616C35.5363 20.9045 35.5227 20.8379 35.5059 20.7643C35.447 20.507 35.3654 20.1641 35.2734 19.7995L35.2725 19.7956C35.0966 19.0726 34.9937 18.6413 34.957 18.3806C34.9393 18.2544 34.9258 18.1036 34.9609 17.9567C34.9995 17.7954 35.0841 17.6884 35.1631 17.6149C35.1698 17.6048 35.1801 17.5885 35.1934 17.5651C35.2261 17.5072 35.2645 17.4299 35.2979 17.3522V17.3513C35.3481 17.233 35.366 17.1716 35.373 17.1296C35.3789 17.0945 35.3805 17.0537 35.3691 16.9743V16.9714C35.3565 16.8798 35.3051 16.7289 35.2266 16.5827C35.1891 16.513 35.1526 16.4576 35.123 16.4206C35.1112 16.4057 35.1017 16.3983 35.0977 16.3942C35.0594 16.372 35.0038 16.3344 34.9502 16.2761C34.8792 16.1987 34.8378 16.1139 34.8125 16.0388C34.7697 15.9119 34.7556 15.7575 34.7471 15.5974C34.7287 15.2544 34.7275 14.6227 34.7275 13.447V10.695L34.9961 10.5544L35.7998 10.1364V10.1374C35.97 10.0485 36.131 9.95573 36.2656 9.87469C36.2174 9.84507 36.165 9.80899 36.1035 9.77313C35.8045 9.59884 35.3637 9.36157 34.7314 9.03387L34.7295 9.0329L19.6348 1.13641C19.0078 0.807865 18.6597 0.634016 18.4463 0.5495C18.3857 0.52552 18.3446 0.516028 18.3203 0.50946L18.3184 0.510437C18.2715 0.53431 18.2038 0.568497 18.1182 0.612976C17.9472 0.701789 17.7056 0.828186 17.4111 0.983093C16.8223 1.29285 16.0234 1.71567 15.1582 2.17645C12.2645 3.71623 6.37183 6.83525 2.21777 9.02509H2.21875C1.75709 9.26911 1.32089 9.50533 0.992188 9.69012C0.861166 9.76378 0.749531 9.82972 0.660156 9.88251C0.673003 9.88958 0.686499 9.89648 0.700195 9.90399C0.906203 10.017 1.19925 10.1742 1.55762 10.3649C2.27406 10.7463 3.24829 11.2581 4.30566 11.8083L4.30664 11.8093C5.36479 12.3632 6.32925 12.8675 7.03027 13.235C7.38064 13.4187 7.66578 13.5688 7.86426 13.6735C7.96322 13.7257 8.04158 13.7667 8.0957 13.7956C8.12257 13.8099 8.14482 13.8228 8.16113 13.8317C8.16886 13.836 8.17778 13.84 8.18555 13.8444C8.18906 13.8464 8.19558 13.8505 8.20312 13.8552C8.20663 13.8573 8.21456 13.8617 8.22363 13.8679C8.22814 13.8709 8.23581 13.8764 8.24512 13.8835C8.24763 13.8854 8.2516 13.8901 8.25781 13.8952C8.26789 13.9033 8.27706 13.912 8.28613 13.9206C8.28929 13.9236 8.29358 13.9261 8.29688 13.9294L8.29492 13.9313C8.37727 14.0138 8.41857 14.11 8.43359 14.1823C8.45221 14.2721 8.4417 14.3447 8.43652 14.3737C8.42548 14.4356 8.40439 14.4823 8.39844 14.4958C8.3824 14.532 8.36406 14.5639 8.35449 14.5798C8.33183 14.6173 8.30208 14.6604 8.27246 14.7028C8.21101 14.7909 8.12691 14.9059 8.03418 15.0261L8.03223 15.028L7.75488 15.4011C7.10351 16.3145 6.41814 17.5363 6.04395 18.4704C5.28402 20.7474 5.15964 22.7403 5.22461 24.1608C5.25717 24.8726 5.33735 25.4399 5.4082 25.8259C5.44358 26.0186 5.47631 26.166 5.5 26.2634C5.51185 26.312 5.52208 26.3488 5.52832 26.3718C5.53138 26.383 5.53379 26.3914 5.53516 26.3962L5.53613 26.4011C6.62132 29.7184 9.24025 32.7341 12.4102 34.3737L12.7197 34.528C15.9439 36.0922 19.6216 36.2343 23.0039 34.9235V34.9225C26.5676 33.5466 29.3977 30.6758 30.6855 27.154L30.8047 26.8112C32.1245 22.8387 31.4214 18.6901 28.8164 15.2272L28.8154 15.2263C28.7107 15.0866 28.6152 14.9502 28.5439 14.8415C28.5088 14.7879 28.4757 14.7352 28.4502 14.6901C28.438 14.6686 28.4235 14.6411 28.4102 14.612C28.4036 14.5976 28.3937 14.5747 28.3848 14.5475C28.3792 14.5307 28.3575 14.4662 28.3574 14.3825C28.3574 14.2644 28.3986 14.178 28.418 14.1423C28.4404 14.1008 28.4649 14.0714 28.4785 14.0554C28.5058 14.0231 28.5312 13.9999 28.543 13.9899C28.5693 13.9676 28.5958 13.9494 28.6123 13.9382C28.6487 13.9134 28.6938 13.8854 28.7412 13.8571C28.8387 13.7991 28.975 13.7218 29.1377 13.6325C29.4645 13.4531 29.9133 13.2152 30.4072 12.9616H30.4082C31.3829 12.4643 32.4641 11.8974 32.8145 11.7028V11.7018L32.8213 11.6989C33.0016 11.6021 33.1696 11.5131 33.2949 11.4479C33.3571 11.4156 33.411 11.3878 33.4512 11.3679C33.4706 11.3582 33.4904 11.3485 33.5078 11.3405C33.5158 11.3368 33.5291 11.3308 33.5439 11.3249C33.5508 11.3222 33.5646 11.3167 33.582 11.3112C33.5908 11.3085 33.6069 11.3037 33.626 11.2995C33.6405 11.2963 33.6814 11.2878 33.7344 11.2878C33.9923 11.2878 34.1232 11.4703 34.1475 11.5056C34.1856 11.5611 34.2031 11.6114 34.209 11.6286C34.2229 11.6691 34.2296 11.7035 34.2314 11.7145C34.2363 11.7433 34.2388 11.7717 34.2402 11.7888C34.2434 11.8273 34.246 11.8767 34.248 11.9304C34.2523 12.0403 34.2559 12.1957 34.2588 12.3825C34.2646 12.7574 34.2676 13.2724 34.2676 13.8376V16.0954Z" fill="#7BBDFF" stroke="#000B2D"/>
<path d="M18.8934 15.4574C22.965 15.4574 26.2663 18.758 26.2665 22.8295C26.2665 26.9011 22.9651 30.2025 18.8934 30.2025C14.8219 30.2024 11.5214 26.901 11.5214 22.8295C11.5215 18.758 14.822 15.4575 18.8934 15.4574Z" fill="#BBC7FF" stroke="#000B2D"/>
<path d="M23.9733 19.9302L24.3168 21.2122L24.3329 22.2859L24.1463 23.74L23.7912 24.9468L23.0422 26.2441L23.0348 26.2511L23.2293 25.5256L23.5708 24.2523L23.5817 24.2101L23.5856 24.1662L23.7447 22.3184L23.746 22.2809L23.7558 21.3382L23.7561 21.2967L23.7499 21.2547L23.6007 20.3138L23.6318 19.6428L23.635 19.5612L23.6125 19.4828L23.4594 18.9434L23.9733 19.9302Z" fill="#8EA9FF" stroke="#8EA9FF"/>
</svg>
