<svg width="141" height="60" viewBox="0 0 141 60" fill="none" xmlns="http://www.w3.org/2000/svg">
<path fill-rule="evenodd" clip-rule="evenodd" d="M122.175 5.02352C122.122 5.04342 120.655 5.81311 118.923 6.73542C116.03 8.2748 110.138 11.3934 105.985 13.583C105.056 14.074 104.226 14.5385 104.147 14.6181C103.968 14.784 103.948 15.003 104.114 15.1423C104.173 15.202 105.958 16.1509 108.075 17.2523C110.191 18.3604 111.93 19.2694 111.943 19.2827C111.956 19.2893 111.817 19.4884 111.638 19.7206C110.882 20.6894 110.019 22.1823 109.574 23.297C109.13 23.4866 109 26.3872 109 26C108.783 31.033 109.057 31.5434 109.057 31.5434C110.218 35.1065 113.071 38.3193 116.502 39.9781C119.852 41.6037 123.674 41.7497 127.184 40.3895C131 38.9164 134.005 35.7912 135.279 31.9693C136.653 27.8355 135.916 23.516 133.216 19.9263C133.017 19.6609 132.858 19.4154 132.858 19.3822C132.858 19.349 133.654 18.9111 134.636 18.4068C135.611 17.9092 136.699 17.3386 137.058 17.1395C137.416 16.9471 137.721 16.7878 137.734 16.7878C137.754 16.7878 137.768 17.7101 137.768 18.8381V20.8884L137.549 21.1074C137.044 21.6117 136.985 22.3084 137.403 22.8525L137.622 23.1444L137.29 24.4914C136.905 26.0706 136.898 26.19 137.104 26.3559C137.237 26.462 137.389 26.4753 138.537 26.4753C139.738 26.4753 139.831 26.4687 139.957 26.3426C140.03 26.2696 140.09 26.1701 140.09 26.117C140.09 26.0639 139.944 25.4137 139.758 24.6772C139.4 23.2041 139.38 23.0781 139.519 22.9653C139.572 22.9254 139.679 22.733 139.758 22.5472C139.871 22.2818 139.898 22.1359 139.864 21.9036C139.818 21.5652 139.553 21.0676 139.36 20.968C139.234 20.9017 139.227 20.8154 139.227 18.4467V15.9982L140.03 15.5802C140.475 15.348 140.88 15.0958 140.933 15.0096C141.026 14.8769 141.026 14.8503 140.913 14.7243C140.76 14.5584 140.229 14.2465 138.962 13.5896C138.126 13.1517 127.43 7.55819 123.867 5.69368C122.626 5.04342 122.374 4.94389 122.175 5.02352ZM130.588 15.985C128.624 14.7176 126.322 13.7423 123.681 13.0721C123.104 12.9261 122.507 12.8067 122.354 12.8133C122.009 12.8133 120.078 13.3043 119.096 13.6361C117.139 14.293 115.4 15.129 113.881 16.1442C113.29 16.5423 113.317 16.5158 113.363 16.5556C113.376 16.5755 113.589 16.5092 113.821 16.4163C116.263 15.421 119.687 14.3129 121.797 13.8285C122.407 13.6892 122.46 13.6958 124.391 14.2067C125.93 14.6115 127.835 15.2352 129.799 15.9651C130.615 16.2703 131.298 16.5092 131.312 16.4959C131.325 16.4826 131 16.257 130.588 15.985Z" fill="#64A1F7"/>
<path d="M130.766 27.8298C130.766 32.1776 127.241 35.7021 122.894 35.7021C118.546 35.7021 115.021 32.1776 115.021 27.8298C115.021 23.482 118.546 19.9575 122.894 19.9575C127.241 19.9575 130.766 23.482 130.766 27.8298Z" fill="#DCE2FF"/>
<path d="M127.973 24.9303L128.317 26.2122L128.333 27.286L128.146 28.74L127.791 29.9468L127.042 31.2442L127.035 31.2512L127.229 30.5256L127.571 29.2524L127.582 29.2102L127.586 29.1662L127.745 27.3185L127.746 27.281L127.756 26.3383L127.756 26.2967L127.75 26.2548L127.601 25.3139L127.632 24.6429L127.635 24.5612L127.613 24.4829L127.459 23.9434L127.973 24.9303Z" fill="#8EA9FF" stroke="#8EA9FF"/>
<path d="M28.4 55.1H27.8L25.16 52.46V51.9L27.8 49.28H28.4L30.8 51.58L33.12 49.28H33.72L36.46 51.9V52.46L33.72 55.1H33.12L30.8 52.78L28.4 55.1ZM30.14 48.02C28.3533 48.02 26.7533 47.7733 25.34 47.28C23.94 46.7867 22.8133 46.1267 21.96 45.3C21.1067 44.4733 20.44 43.5067 19.96 42.4C19.48 41.3067 19.2267 40.1533 19.2 38.94C19.1733 37.7267 19.3267 36.4933 19.66 35.24C19.9933 33.9867 20.5067 32.7867 21.2 31.64H24.48C23.8933 32.7867 23.5467 33.8267 23.44 34.76C23.3467 35.6933 23.4533 36.4533 23.76 37.04C24.0667 37.64 24.52 38.1333 25.12 38.52C25.7333 38.92 26.4 39.2 27.12 39.36C27.84 39.5333 28.6067 39.62 29.42 39.62H34.66C35.94 39.62 36.8733 39.3533 37.46 38.82C38.06 38.3 38.3667 37.6933 38.38 37H30.44V35.44C30.44 35.04 30.46 34.6467 30.5 34.26C30.54 33.86 30.6133 33.4133 30.72 32.92C30.84 32.4267 30.9933 31.9733 31.18 31.56C31.3667 31.1333 31.6267 30.7133 31.96 30.3C32.2933 29.8867 32.6733 29.54 33.1 29.26C33.5267 28.9667 34.0533 28.7333 34.68 28.56C35.32 28.3733 36.0267 28.28 36.8 28.28H46.38V37H41.88V40.22C41.88 41.6333 41.5333 42.94 40.84 44.14C40.1467 45.34 39.2 46.2867 38 46.98C36.8 47.6733 35.4933 48.02 34.08 48.02H30.14ZM58.0492 33.12L58.0092 33.34C57.9826 33.4867 57.9359 33.6733 57.8692 33.9C57.8026 34.1267 57.7159 34.38 57.6092 34.66C57.5026 34.94 57.3559 35.22 57.1692 35.5C56.9826 35.7667 56.7759 36.0133 56.5492 36.24C56.3359 36.4667 56.0626 36.6533 55.7292 36.8C55.3959 36.9467 55.0359 37.02 54.6492 37.02C53.9692 37.02 53.3759 36.88 52.8692 36.6C52.3626 36.32 51.9826 36.0067 51.7292 35.66C51.4892 35.3133 51.2892 34.92 51.1292 34.48C50.9826 34.0267 50.8959 33.7133 50.8692 33.54C50.8426 33.3667 50.8292 33.2267 50.8292 33.12V33.26C50.8159 33.34 50.7892 33.46 50.7492 33.62C50.7226 33.7667 50.6759 33.94 50.6092 34.14C50.5559 34.3267 50.4692 34.5267 50.3492 34.74C50.2292 34.9533 50.0892 35.1667 49.9292 35.38C49.7826 35.5933 49.5826 35.8 49.3292 36C49.0759 36.1867 48.7959 36.36 48.4892 36.52C48.1959 36.6667 47.8292 36.7867 47.3892 36.88C46.9626 36.96 46.4959 37 45.9892 37H43.5492V28.28H48.8092C49.2492 28.28 49.5692 28.2 49.7692 28.04C49.9692 27.88 50.0692 27.6733 50.0692 27.42V25.1H52.9892L52.9692 25.88C52.9559 26.4133 53.0892 26.9467 53.3692 27.48C53.6626 28.0133 54.1159 28.28 54.7292 28.28C55.1426 28.28 55.4826 28.1667 55.7492 27.94C56.0292 27.7133 56.2226 27.46 56.3292 27.18C56.4359 26.9 56.5092 26.58 56.5492 26.22C56.5892 25.8467 56.6026 25.5867 56.5892 25.44C56.5892 25.2933 56.5826 25.18 56.5692 25.1H59.5092L59.4692 25.44C59.4559 25.6533 59.4692 25.9133 59.5092 26.22C59.5492 26.5267 59.6092 26.84 59.6892 27.16C59.7826 27.4667 59.9492 27.7333 60.1892 27.96C60.4426 28.1733 60.7559 28.28 61.1292 28.28C61.6359 28.28 62.0426 28.1933 62.3492 28.02C62.6692 27.8467 62.8692 27.6067 62.9492 27.3C63.0292 26.98 63.0226 26.6267 62.9292 26.24C62.8359 25.8533 62.6359 25.4333 62.3292 24.98C62.0226 24.5267 61.6359 24.08 61.1692 23.64L65.1492 20.5L65.5892 21.16C65.8826 21.6 66.1759 22.2333 66.4692 23.06C66.7626 23.8733 66.9092 24.66 66.9092 25.42L66.9292 31.4C66.9292 31.8667 66.8826 32.34 66.7892 32.82C66.6959 33.2867 66.5292 33.76 66.2892 34.24C66.0626 34.72 65.7759 35.1467 65.4292 35.52C65.0959 35.88 64.6559 36.18 64.1092 36.42C63.5626 36.6467 62.9492 36.76 62.2692 36.76C61.7226 36.76 61.2226 36.6933 60.7692 36.56C60.3159 36.4133 59.9426 36.24 59.6492 36.04C59.3692 35.84 59.1226 35.6 58.9092 35.32C58.6959 35.04 58.5359 34.7867 58.4292 34.56C58.3359 34.3333 58.2559 34.0933 58.1892 33.84C58.1226 33.5867 58.0826 33.42 58.0692 33.34C58.0559 33.2467 58.0492 33.1733 58.0492 33.12ZM72.6298 48.36C71.5232 48.36 69.3298 47.7467 66.0498 46.52C63.6765 45.5867 62.4898 45.12 62.4898 45.12V43.98C64.1165 43.66 65.9698 43 68.0498 42C70.1298 41.0133 71.9098 39.94 73.3898 38.78C74.8698 37.62 75.6098 36.6733 75.6098 35.94C75.6098 34.9933 74.6698 33.5533 72.7898 31.62C71.9232 30.7933 71.4898 30.38 71.4898 30.38L75.3698 24.02L75.6098 24.2C75.7832 24.32 75.9965 24.52 76.2498 24.8C76.5165 25.0667 76.8098 25.3933 77.1298 25.78C77.4498 26.1667 77.7698 26.6533 78.0898 27.24C78.4098 27.8267 78.6965 28.46 78.9498 29.14C79.2165 29.82 79.4298 30.6267 79.5898 31.56C79.7632 32.4933 79.8498 33.4667 79.8498 34.48C79.8498 35.32 79.7432 36.32 79.5298 37.48C79.3165 38.64 78.9965 39.8533 78.5698 41.12C78.1432 42.3867 77.6498 43.56 77.0898 44.64C76.5298 45.72 75.8565 46.6067 75.0698 47.3C74.2832 48.0067 73.4698 48.36 72.6298 48.36ZM89.6591 37C88.6724 37 87.7724 36.76 86.9591 36.28C86.1457 35.7867 85.5191 35.1333 85.0791 34.32C83.7991 31.9067 84.0124 28.8333 85.7191 25.1H87.5791C87.5657 25.14 87.5524 25.2 87.5391 25.28C87.5257 25.36 87.5057 25.5133 87.4791 25.74C87.4524 25.9533 87.4457 26.16 87.4591 26.36C87.4724 26.56 87.5124 26.78 87.5791 27.02C87.6591 27.26 87.7657 27.4733 87.8991 27.66C88.0457 27.8333 88.2591 27.98 88.5391 28.1C88.8191 28.22 89.1524 28.28 89.5391 28.28H95.2991L95.3191 28.1C95.3324 27.98 95.3124 27.8067 95.2591 27.58C95.2057 27.3533 95.1191 27.0933 94.9991 26.8C94.8924 26.4933 94.6791 26.1533 94.3591 25.78C94.0391 25.3933 93.6524 25 93.1991 24.6C92.7457 24.2 92.1257 23.7733 91.3391 23.32C90.5524 22.8533 89.6591 22.4067 88.6591 21.98L90.9991 16.6C92.4257 17.1333 93.6724 17.9067 94.7391 18.92C95.8191 19.9333 96.6391 21.04 97.1991 22.24C97.7591 23.44 98.1657 24.7067 98.4191 26.04C98.6724 27.36 98.7524 28.6267 98.6591 29.84C98.5791 31.0533 98.3591 32.1467 97.9991 33.12C97.6791 34.24 97.0457 35.1667 96.0991 35.9C95.1657 36.6333 94.0991 37 92.8991 37H89.6591Z" fill="#64A1F7"/>
<path d="M99 26H110V31H99V26Z" fill="#64A1F7"/>
<path d="M101.156 27.7148C101.007 27.7103 100.858 27.7058 100.453 27.6831C100.049 27.6605 99.3938 27.6198 98.9524 27.6034C98.5109 27.5869 98.3031 27.596 98.2141 27.5961C98.1605 27.5962 98.3386 27.5598 98.6186 27.5324C98.8929 27.5056 99.0653 27.5186 99.2443 27.5118C99.9594 27.4844 100.056 27.4821 100.077 27.4753C100.11 27.4642 99.8162 27.4229 99.4969 27.3933C99.2627 27.3715 99.0797 27.3635 98.9816 27.3566C98.8201 27.3452 98.6005 27.3361 98.516 27.3201C98.4956 27.3162 98.4773 27.3177 98.4883 27.3155C98.5982 27.293 98.6909 27.295 98.9673 27.2813C99.1893 27.2703 99.5781 27.2767 99.7196 27.2767C99.8393 27.2767 99.4185 27.263 99.242 27.2516C99.016 27.2371 98.9338 27.2356 98.8311 27.2242C98.6833 27.2079 98.5553 27.2082 98.4476 27.1946C98.4265 27.1919 98.4088 27.1855 98.4108 27.1809C98.4212 27.1568 98.5219 27.1671 98.629 27.1649C98.6959 27.1635 99.017 27.1534 99.4802 27.1557C99.6678 27.1566 99.7587 27.1671 99.8411 27.1671C99.9273 27.1671 99.6731 27.1534 99.5275 27.1421C99.3514 27.1283 99.221 27.1352 99.0739 27.1284C98.7058 27.1113 98.4858 27.1261 98.5359 27.1238C98.5589 27.1215 98.5769 27.117 98.8144 27.1147C99.0519 27.1124 99.5083 27.1124 99.9785 27.1124" stroke="#64A1F7" stroke-width="2" stroke-linecap="round"/>
<path d="M98.2944 27.2356C98.4798 27.2356 98.8058 27.2311 98.7581 27.222C98.6546 27.2022 98.5642 27.1808 98.475 27.1672C98.3971 27.1553 98.3448 27.1215 98.3265 27.1124C98.2042 27.0517 98.7003 27.1167 98.8416 27.1283C98.9298 27.1355 99.0467 27.1534 99.127 27.1534C99.325 27.1534 98.8651 27.1397 98.849 27.1352C98.822 27.1276 99.0324 27.1123 99.2265 27.1101C99.2851 27.1094 99.2625 27.1033 99.2305 27.101C99.0936 27.091 99.0023 27.0759 98.8336 27.069C98.7406 27.0652 98.651 27.0439 98.6118 27.0439C98.4043 27.0439 99.0094 27.0576 99.159 27.0689C99.2572 27.0764 99.3843 27.085 99.4899 27.0963C99.5856 27.1066 99.7672 27.1123 99.9007 27.101C99.9236 27.099 99.9506 27.0987 99.9556 27.0941C99.9975 27.0557 99.4533 27.0576 99.1689 27.0689C99.085 27.0713 99.0157 27.0758 98.95 27.0826C98.9022 27.085 98.8254 27.085 98.7189 27.0987" stroke="#64A1F7" stroke-width="2" stroke-linecap="round"/>
<path d="M100.293 27.0713C100.23 27.0442 100.143 27.0302 100.052 27.0279C99.9967 27.0266 99.7074 27.0165 99.2875 27.0142C98.9845 27.0126 98.71 27.0119 98.6052 27.0279C98.4269 27.0347 98.3088 27.0439 98.1944 27.0553C98.1579 27.0576 98.1037 27.0576 98.0479 27.0576" stroke="#64A1F7" stroke-width="2" stroke-linecap="round"/>
<path d="M100.841 29.4127C100.638 29.3991 100.435 29.3856 99.9367 29.365C99.4388 29.3445 98.6526 29.3174 98.2363 29.3012C97.82 29.2849 97.7974 29.2804 98.2105 29.2555C98.6236 29.2306 99.4731 29.1854 99.6147 29.1553C99.7564 29.1253 99.1644 29.1117 98.8256 29.1115C98.4868 29.1113 98.419 29.1249 98.427 29.1499C98.4351 29.175 98.5209 29.2111 98.8001 29.2794C99.0793 29.3478 99.5492 29.4472 99.8116 29.5052C100.074 29.5632 100.115 29.5767 100.111 29.5882C100.107 29.5997 100.057 29.6087 99.8486 29.6157C99.2742 29.6347 98.9466 29.6453 99.0513 29.6704C99.1636 29.6973 99.5282 29.7273 99.8107 29.7684C100.18 29.8221 99.0568 29.7869 99.0159 29.796C98.8862 29.8248 98.7375 29.8188 98.6644 29.8257C98.6275 29.8292 98.7494 29.8371 98.9752 29.8394C99.324 29.8429 99.7639 29.8553 99.8093 29.8622C99.8365 29.8663 99.8729 29.8645 99.6814 29.8645C99.4899 29.8645 99.0697 29.8645 98.8419 29.8668C98.6141 29.869 98.5916 29.8736 98.6138 29.8759C98.7909 29.8944 98.9369 29.8919 99.1692 29.9033C99.3094 29.9101 99.5716 29.9056 99.7179 29.9079C99.887 29.9105 99.517 29.9193 98.9982 29.9193C98.7939 29.9193 99.2753 29.942 99.6439 29.9489C99.7228 29.9504 99.7409 29.9557 99.7683 29.958C99.7956 29.9604 99.8318 29.9604 99.6652 29.9604C99.4985 29.9604 99.128 29.9604 98.7463 29.9604" stroke="#64A1F7" stroke-width="2" stroke-linecap="round"/>
<path d="M109.121 27.8915C109.102 27.8915 109.083 27.8915 109.519 27.8507C109.954 27.8099 110.845 27.7283 111.201 27.7114C111.556 27.6945 111.349 27.7447 110.665 27.8145C109.981 27.8842 108.827 27.9721 108.851 28.0361C108.874 28.1002 110.11 28.1378 110.731 28.1698C111.351 28.2017 111.32 28.2268 111.251 28.2585C111.181 28.2903 111.075 28.3279 110.64 28.4132C110.206 28.4984 109.447 28.6302 109.444 28.6918C109.442 28.7533 110.22 28.7408 110.568 28.7437C110.915 28.7467 110.808 28.7655 110.374 28.7846C109.939 28.8037 109.18 28.8225 108.833 28.8479C108.486 28.8733 108.574 28.9047 108.986 28.9428C109.398 28.9809 110.132 29.0248 110.47 29.0568C110.807 29.0889 110.726 29.1077 110.357 29.1362C109.989 29.1647 109.337 29.2023 109.054 29.2343C108.771 29.2662 108.878 29.2913 109.212 29.3199C109.546 29.3485 110.104 29.3799 110.367 29.4086C110.585 29.4324 109.913 29.4883 109.257 29.4977C108.745 29.505 110.375 29.5516 110.398 29.5736C110.573 29.7457 109.631 29.6591 109.309 29.6939C109.265 29.6987 109.808 29.7224 110.007 29.7352C110.132 29.7432 109.72 29.7734 109.436 29.7734C109.387 29.7734 109.923 29.7734 110.121 29.7765C110.263 29.7788 109.859 29.7924 109.493 29.7924C109.472 29.7924 109.786 29.7924 109.684 29.7987C109.582 29.8049 109.055 29.8175 109.085 29.824C109.717 29.8304 110.3 29.8304 110.221 29.8367C110.179 29.843 110.135 29.8555 110.071 29.8684" stroke="#64A1F7" stroke-width="2" stroke-linecap="round"/>
<path d="M110.299 29.8875C109.864 29.9255 109.495 29.938 109.198 29.9476C109.108 29.9505 109.045 29.9635 109.029 29.9635C108.817 29.9635 109.499 29.9825 109.797 29.9794C109.888 29.9762 109.857 29.97 109.787 29.9667C109.718 29.9635 109.611 29.9635 109.501 29.9635" stroke="#64A1F7" stroke-width="2" stroke-linecap="round"/>
<path d="M110.109 29.4882C110.047 29.5578 109.869 29.5833 109.768 29.6022C109.665 29.6213 109.552 29.6528 109.435 29.6876C109.409 29.6954 109.4 29.7285 109.409 29.7508C109.459 29.8725 109.64 29.8177 109.666 29.8334C109.744 29.8817 109.47 29.9 109.346 29.9158C109.25 29.9282 109.57 29.976 109.706 30.014C109.753 30.0269 109.817 30.0205 109.83 30.0174C109.844 30.0142 109.806 30.0079 109.68 30.0047C109.554 30.0015 109.341 30.0015 109.121 30.0015" stroke="#64A1F7" stroke-width="2" stroke-linecap="round"/>
<path d="M110.28 27.4732C109.615 27.3352 109.028 27.2516 108.861 27.2263C108.381 27.1534 109.798 27.1818 109.821 27.1723C109.946 27.1192 109.396 27.1881 109.125 27.2038C109.04 27.2088 108.902 27.2071 109.013 27.2071C109.487 27.2071 109.906 27.2133 110.057 27.2228C110.334 27.2261 110.552 27.2198 110.694 27.2103C110.792 27.2071 110.943 27.2071 111.06 27.2071" stroke="#64A1F7" stroke-width="2" stroke-linecap="round"/>
<path d="M111.06 27.2071C110.934 27.2071 110.809 27.2071 110.474 27.2008C110.14 27.1945 109.601 27.182 109.341 27.1693C109.082 27.1565 109.12 27.144 109.296 27.1375C109.472 27.1311 109.786 27.1311 109.731 27.1311C109.244 27.1311 108.841 27.1248 108.946 27.1153C109.208 27.0913 109.537 27.093 109.684 27.093C109.762 27.093 109.217 27.093 109.036 27.0899C108.854 27.0868 108.892 27.0805 109.027 27.0773C109.163 27.074 109.395 27.074 109.38 27.074C109.094 27.074 108.842 27.0678 108.892 27.0551C108.924 27.0472 109.331 27.036 109.766 27.0518C109.873 27.0557 110.055 27.055 110.127 27.055C110.154 27.055 110.065 27.0613 109.748 27.0739C109.474 27.0848 108.972 27.0866 108.73 27.0867C108.487 27.0868 108.518 27.0805 108.553 27.0773C108.689 27.0647 109.217 27.055 109.375 27.0392C109.463 27.0304 109.21 27.0297 109.137 27.0202C109.09 27.0141 109.021 27.017 109.264 27.017C109.508 27.017 110.066 27.017 110.37 27.0201C110.673 27.0233 110.704 27.0295 110.756 27.036" stroke="#64A1F7" stroke-width="2" stroke-linecap="round"/>
</svg>
